<?xml version="1.0" encoding="iso-8859-1"?>
<!-- Generator: Adobe Illustrator 19.0.0, SVG Export Plug-In . SVG Version: 6.00 Build 0)  -->
<svg version="1.1" id="Capa_1" xmlns="http://www.w3.org/2000/svg" xmlns:xlink="http://www.w3.org/1999/xlink" x="0px" y="0px"
	 viewBox="0 0 512 512" style="enable-background:new 0 0 512 512;" xml:space="preserve">
<path style="fill:#EEEBEA;" d="M400.024,0h-256c-13.234,0-24,10.766-24,24v464c0,13.234,10.766,24,24,24h256
	c13.234,0,24-10.766,24-24V24C424.024,10.766,413.258,0,400.024,0z"/>
<path style="fill:#D8D7DD;" d="M144.024,488V24c0-13.234,10.766-24,24-24h-24c-13.234,0-24,10.766-24,24v464
	c0,13.234,10.766,24,24,24h24C154.79,512,144.024,501.234,144.024,488z"/>
<rect x="120.028" y="64" style="fill:#89889A;" width="304" height="384"/>
<rect x="120.028" y="64" style="fill:#757589;" width="24" height="384"/>
<g>
	<path style="fill:#89889A;" d="M296.024,488h-48c-4.418,0-8-3.582-8-8s3.582-8,8-8h48c4.418,0,8,3.582,8,8S300.442,488,296.024,488
		z"/>
	<circle style="fill:#89889A;" cx="272.028" cy="40" r="8"/>
	<circle style="fill:#89889A;" cx="311.528" cy="40" r="8"/>
	<circle style="fill:#89889A;" cx="232.528" cy="40.5" r="8"/>
</g>
<path style="fill:#F17690;" d="M218.527,174.197c8.474-16.948,3.858-40.896-10.29-53.386c-6.474-5.715-24.181-16.603-52.866,0.359
	c-28.687-16.961-46.392-6.074-52.866-0.359c-14.147,12.489-18.764,36.438-10.29,53.386c16.848,33.696,57.325,58.253,59.04,59.282
	c2.508,1.505,5.724,1.505,8.231,0C161.202,232.45,201.678,207.893,218.527,174.197z"/>
<path style="fill:#EE5375;" d="M168.509,225.409c-1.715-1.029-42.191-25.586-59.04-59.282c-8.474-16.948-3.858-40.896,10.29-53.386
	c0.049-0.044,0.106-0.09,0.156-0.134c-8.441,1.426-14.259,5.424-17.41,8.205c-14.147,12.489-18.764,36.438-10.29,53.386
	c16.848,33.696,57.325,58.253,59.04,59.282c2.508,1.505,5.724,1.505,8.231,0c0.53-0.318,4.766-2.887,10.861-7.276
	C169.71,226.016,169.089,225.757,168.509,225.409z"/>
<path style="fill:#F17690;" d="M391.349,132.361c-4.39-3.875-16.143-11.212-34.673-1.008c-18.532-10.204-30.284-2.867-34.673,1.008
	c-9.71,8.572-12.88,25.004-7.067,36.632c10.799,21.598,36.534,37.213,37.625,37.867c2.508,1.505,5.724,1.505,8.231,0
	c1.09-0.654,26.825-16.269,37.625-37.867C404.229,157.366,401.059,140.933,391.349,132.361z"/>
<path style="fill:#EE5375;" d="M368.558,200.694c-1.09-0.654-26.826-16.269-37.625-37.867c-5.813-11.627-2.643-28.06,7.067-36.632
	c0.005-0.004,0.011-0.009,0.016-0.014c-7.964,0.204-13.349,3.827-16.014,6.18c-9.71,8.572-12.88,25.004-7.067,36.632
	c10.799,21.598,36.534,37.213,37.625,37.867c2.508,1.505,5.724,1.505,8.231,0c0.381-0.229,3.78-2.292,8.496-5.795
	C369.041,200.95,368.794,200.835,368.558,200.694z"/>
<path style="fill:#F17690;" d="M349.791,236.73c-11.909-10.513-37.897-23.729-80.252,2.492
	c-42.354-26.222-68.343-13.005-80.252-2.492c-10.239,9.039-17.374,22.413-20.092,37.658c-2.593,14.547-0.789,29.473,4.95,40.95
	c25.954,51.909,88.624,89.929,91.279,91.521c2.508,1.505,5.724,1.505,8.231,0c2.655-1.593,65.325-39.612,91.279-91.521
	c5.739-11.477,7.543-26.403,4.95-40.95C367.165,259.143,360.03,245.769,349.791,236.73z"/>
<path style="fill:#EE5375;" d="M195.126,307.417c-5.739-11.477-7.543-26.403-4.95-40.95c2.718-15.246,9.853-28.62,20.092-37.658
	c1.63-1.438,3.525-2.927,5.687-4.359c-12.214,1.71-21.024,7.298-26.669,12.281c-10.239,9.039-17.374,22.413-20.092,37.658
	c-2.593,14.547-0.789,29.473,4.95,40.95c25.954,51.909,88.624,89.929,91.279,91.521c2.508,1.505,5.724,1.505,8.231,0
	c0.685-0.411,5.377-3.256,12.398-8.135C280.388,395.28,220.38,357.926,195.126,307.417z"/>
<g>
</g>
<g>
</g>
<g>
</g>
<g>
</g>
<g>
</g>
<g>
</g>
<g>
</g>
<g>
</g>
<g>
</g>
<g>
</g>
<g>
</g>
<g>
</g>
<g>
</g>
<g>
</g>
<g>
</g>
</svg>
