<?xml version="1.0"?>
<svg xmlns="http://www.w3.org/2000/svg" xmlns:xlink="http://www.w3.org/1999/xlink" version="1.1" id="Capa_1" x="0px" y="0px" viewBox="0 0 174.08 174.08" style="enable-background:new 0 0 174.08 174.08;" xml:space="preserve" width="512px" height="512px" class=""><g><path style="fill:#0CBF6C" d="M170.667,83.627c0-39.588-37.441-71.68-83.627-71.68S3.413,44.039,3.413,83.627  S40.854,117.76,87.04,117.76S170.667,123.215,170.667,83.627z" data-original="#EE5281" class="active-path" data-old_color="#0BB767"/><path d="M115.256,121.426c-4.282,0-8.699-0.06-13.22-0.119c-9.73-0.133-20.263-0.133-29.993,0  c-27.117,0.357-50.528,0.678-62.918-11.549C2.985,103.7,0,95.153,0,83.627C0,42.22,39.047,8.533,87.04,8.533  s87.04,33.686,87.04,75.093c0,11.527-2.985,20.074-9.126,26.132C154.631,119.945,136.649,121.426,115.256,121.426z M87.04,114.347  c5.152,0,10.194,0.068,15.089,0.133c25.581,0.34,47.676,0.64,58.032-9.581c4.774-4.709,7.093-11.667,7.093-21.272  c0-37.642-35.983-68.267-80.213-68.267S6.827,45.984,6.827,83.627c0,9.605,2.319,16.563,7.093,21.272  c10.356,10.221,32.447,9.919,58.032,9.581C76.846,114.415,81.888,114.347,87.04,114.347z" data-original="#000000" class=""/><path style="fill:#DDDDDD;" d="M7.893,60.486c5.513,3.821,12.196,6.076,19.413,6.076c18.852,0,34.133-15.281,34.133-34.133  c0-5.733-1.43-11.126-3.927-15.869C34.249,24.086,15.947,40.247,7.893,60.486z" data-original="#DDDDDD" class=""/><path d="M27.307,69.973c-7.663,0-15.048-2.311-21.357-6.683c-1.306-0.905-1.812-2.591-1.227-4.067  C13.187,37.946,32.046,21.212,56.46,13.31c1.58-0.509,3.297,0.186,4.072,1.659c2.828,5.367,4.321,11.406,4.321,17.457  C64.853,53.13,48.01,69.973,27.307,69.973z M12.17,59.146c4.61,2.625,9.789,4,15.136,4c16.939,0,30.72-13.781,30.72-30.72  c0-4.047-0.773-7.953-2.302-11.65C35.63,28.029,19.987,41.81,12.17,59.146z" data-original="#000000" class=""/><path style="fill:#DDDDDD;" d="M116.567,16.558c-2.497,4.743-3.927,10.136-3.927,15.869c0,18.852,15.281,34.133,34.133,34.133  c7.217,0,13.899-2.253,19.413-6.076C158.133,40.247,139.831,24.086,116.567,16.558z" data-original="#DDDDDD" class=""/><path d="M146.773,69.973c-20.704,0-37.547-16.843-37.547-37.547c0-6.052,1.493-12.09,4.32-17.458  c0.773-1.471,2.49-2.167,4.072-1.659c24.416,7.902,43.273,24.637,51.739,45.913c0.587,1.475,0.079,3.162-1.227,4.067  C161.823,67.662,154.438,69.973,146.773,69.973z M118.356,20.777c-1.529,3.697-2.302,7.603-2.302,11.65  c0,16.939,13.781,30.72,30.72,30.72c5.347,0,10.528-1.376,15.138-4C154.093,41.81,138.45,28.027,118.356,20.777z" data-original="#000000" class=""/><circle style="fill:#DDDDDD;" cx="87.04" cy="71.68" r="25.6" data-original="#DDDDDD" class=""/><path d="M87.04,100.693c-15.998,0-29.013-13.015-29.013-29.013S71.042,42.667,87.04,42.667s29.013,13.015,29.013,29.013  S103.038,100.693,87.04,100.693z M87.04,49.493c-12.233,0-22.187,9.953-22.187,22.187s9.953,22.187,22.187,22.187  s22.187-9.953,22.187-22.187S99.273,49.493,87.04,49.493z" data-original="#000000" class=""/><path style="fill:#FCAD3A" d="M123.815,162.133H50.266c-5.139,0-9.305-4.166-9.305-9.305v-41.895h92.16v41.895  C133.12,157.967,128.954,162.133,123.815,162.133z" data-original="#FCAD3A" class=""/><path d="M123.815,165.547H50.265c-7.013,0-12.718-5.705-12.718-12.718v-41.895c0-1.884,1.529-3.413,3.413-3.413h92.16  c1.884,0,3.413,1.529,3.413,3.413v41.895C136.533,159.841,130.828,165.547,123.815,165.547z M44.373,114.347v38.482  c0,3.248,2.644,5.891,5.891,5.891h73.551c3.248,0,5.891-2.644,5.891-5.891v-38.482H44.373z" data-original="#000000" class=""/><path d="M102.4,134.827c-1.884,0-3.413-1.529-3.413-3.413v-10.24c0-1.884,1.529-3.413,3.413-3.413c1.884,0,3.413,1.529,3.413,3.413  v10.24C105.813,133.298,104.284,134.827,102.4,134.827z" data-original="#000000" class=""/><path d="M71.68,134.827c-1.884,0-3.413-1.529-3.413-3.413v-10.24c0-1.884,1.529-3.413,3.413-3.413c1.884,0,3.413,1.529,3.413,3.413  v10.24C75.093,133.298,73.564,134.827,71.68,134.827z" data-original="#000000" class=""/></g> </svg>
